<?xml version="1.0" standalone="no"?>
<!DOCTYPE svg PUBLIC "-//W3C//DTD SVG 20010904//EN"
 "http://www.w3.org/TR/2001/REC-SVG-20010904/DTD/svg10.dtd">
<svg version="1.0" xmlns="http://www.w3.org/2000/svg"
 width="800.000000pt" height="800.000000pt" viewBox="0 0 800.000000 800.000000"
 preserveAspectRatio="xMidYMid meet">
<metadata>
Created by potrace 1.14, written by Peter Selinger 2001-2017
</metadata>
<g transform="translate(0.000000,800.000000) scale(0.100000,-0.100000)"
fill="#000000" stroke="none">
<path d="M5087 6060 c-102 -26 -214 -114 -255 -202 -11 -24 -194 -432 -407
-908 -213 -476 -427 -953 -475 -1060 -447 -992 -672 -1506 -681 -1556 -23
-122 28 -262 125 -352 79 -72 146 -96 266 -97 87 0 101 3 162 32 37 17 88 52
114 78 54 54 70 87 360 737 l199 448 686 0 685 0 248 -555 c155 -345 262 -572
284 -600 41 -53 104 -97 181 -126 84 -32 208 -23 295 20 160 79 251 258 216
425 -7 32 -51 147 -100 255 -444 991 -615 1373 -989 2211 -238 531 -446 994
-463 1030 -65 134 -191 219 -336 226 -42 2 -94 -1 -115 -6z m260 -1722 c89
-199 161 -363 159 -365 -2 -2 -149 -2 -329 -1 l-325 3 161 362 c89 199 164
363 167 363 3 0 78 -163 167 -362z"/>
</g>
</svg>
